<svg xmlns="http://www.w3.org/2000/svg" width="1200" height="630" viewBox="0 0 1200 630">
  <defs>
    <linearGradient id="bg" x1="0%" y1="0%" x2="100%" y2="100%">
      <stop offset="0%" stop-color="#06060e"/>
      <stop offset="50%" stop-color="#0a0a2e"/>
      <stop offset="100%" stop-color="#0f0520"/>
    </linearGradient>
    <linearGradient id="accent" x1="0%" y1="0%" x2="100%" y2="0%">
      <stop offset="0%" stop-color="#06b6d4"/>
      <stop offset="100%" stop-color="#8b5cf6"/>
    </linearGradient>
  </defs>
  <rect width="1200" height="630" fill="url(#bg)"/>
  <!-- Grid pattern -->
  <g opacity="0.08" stroke="#06b6d4" stroke-width="0.5">
    <line x1="0" y1="0" x2="0" y2="630"/><line x1="60" y1="0" x2="60" y2="630"/>
    <line x1="120" y1="0" x2="120" y2="630"/><line x1="180" y1="0" x2="180" y2="630"/>
    <line x1="240" y1="0" x2="240" y2="630"/><line x1="300" y1="0" x2="300" y2="630"/>
    <line x1="360" y1="0" x2="360" y2="630"/><line x1="420" y1="0" x2="420" y2="630"/>
    <line x1="480" y1="0" x2="480" y2="630"/><line x1="540" y1="0" x2="540" y2="630"/>
    <line x1="600" y1="0" x2="600" y2="630"/><line x1="660" y1="0" x2="660" y2="630"/>
    <line x1="720" y1="0" x2="720" y2="630"/><line x1="780" y1="0" x2="780" y2="630"/>
    <line x1="840" y1="0" x2="840" y2="630"/><line x1="900" y1="0" x2="900" y2="630"/>
    <line x1="960" y1="0" x2="960" y2="630"/><line x1="1020" y1="0" x2="1020" y2="630"/>
    <line x1="1080" y1="0" x2="1080" y2="630"/><line x1="1140" y1="0" x2="1140" y2="630"/>
    <line x1="0" y1="63" x2="1200" y2="63"/><line x1="0" y1="126" x2="1200" y2="126"/>
    <line x1="0" y1="189" x2="1200" y2="189"/><line x1="0" y1="252" x2="1200" y2="252"/>
    <line x1="0" y1="315" x2="1200" y2="315"/><line x1="0" y1="378" x2="1200" y2="378"/>
    <line x1="0" y1="441" x2="1200" y2="441"/><line x1="0" y1="504" x2="1200" y2="504"/>
    <line x1="0" y1="567" x2="1200" y2="567"/>
  </g>
  <!-- Glowing orb -->
  <circle cx="900" cy="315" r="120" fill="#8b5cf6" opacity="0.05"/>
  <circle cx="900" cy="315" r="80" fill="#06b6d4" opacity="0.08"/>
  <!-- Title -->
  <text x="100" y="260" font-family="system-ui, -apple-system, sans-serif" font-size="72" font-weight="700" fill="white">TuringVault</text>
  <!-- Subtitle -->
  <text x="100" y="330" font-family="system-ui, -apple-system, sans-serif" font-size="28" fill="#94a3b8">Proof-of-Reasoning Trust Firewall</text>
  <!-- Description -->
  <text x="100" y="400" font-family="system-ui, -apple-system, sans-serif" font-size="20" fill="#64748b">Autonomous AI agents • Verifiable on-chain decisions • Mantle Mainnet</text>
  <!-- Accent line -->
  <rect x="100" y="280" width="200" height="3" rx="1.5" fill="url(#accent)"/>
  <!-- Badge -->
  <rect x="100" y="440" width="140" height="36" rx="18" fill="none" stroke="#06b6d4" stroke-width="1.5" opacity="0.6"/>
  <text x="130" y="464" font-family="monospace" font-size="14" fill="#06b6d4">LIVE ON MAINNET</text>
</svg>
